# xmcd
#
# Track frame offsets:
#	150
#	15194
#	28538
#	48012
#	59796
#	86570
#	108176
#	123178
#	139504
#	152263
#	165719
#	182309
#	194260
#	207729
#	218440
#
# Disc length: 3114 seconds
#
# Revision: 1
# Processed by: cddbd v1.5.1PL0 Copyright (c) Steve Scherf et al.
# Submitted via: audiograbber 1.82.02
#
DISCID=b50c280f
DTITLE=Hank Williams Jr. - Coast 2 Coast Vol 2
DYEAR=1900
DGENRE=Karaoke
TTITLE0=Hank Williams Jr. - Whiskey bent and hell bound
TTITLE1=Hank Williams Jr. - women II've never had
TTITLE2=Hank Williams Jr. - Kaw-liga
TTITLE3=Hank Williams Jr. - Dixie on my mind
TTITLE4=Hank Williams Jr. - Tuesday's gone
TTITLE5=Hank Williams Jr. - Eye's of Waylon
TTITLE6=Hank Williams Jr. - I'm tired
TTITLE7=Hank Williams Jr. - Dirty mind
TTITLE8=Hank Williams Jr. - Hank
TTITLE9=Hank Williams Jr. - If you don't like Hank Williams
TTITLE10=Hank Williams Jr. - Man of steel
TTITLE11=Hank Williams Jr. - Gonna go huntin' tonight
TTITLE12=Hank Williams Jr. - Attitude adjustment
TTITLE13=Hank Williams Jr. - All my rowdy friends ( Monday night football )
TTITLE14=Hank Williams Jr. - The American way
EXTD=
EXTT0=
EXTT1=
EXTT2=
EXTT3=
EXTT4=
EXTT5=
EXTT6=
EXTT7=
EXTT8=
EXTT9=
EXTT10=
EXTT11=
EXTT12=
EXTT13=
EXTT14=
PLAYORDER=
